<svg xmlns="http://www.w3.org/2000/svg" viewBox="0 0 420 96" width="420" height="96">
<g transform="translate(16 16)"><g>
  <polygon points="59.72,20.52 43.48,4.28 20.52,4.28 4.28,20.52 4.28,43.48 20.52,59.72 43.48,59.72 59.72,43.48" fill="#10b981" stroke="#f5c451" stroke-width="3" stroke-linejoin="round"/>
  <polygon points="59.72,20.52 43.48,4.28 20.52,4.28 4.28,20.52 4.28,43.48 20.52,59.72 43.48,59.72 59.72,43.48" fill="none" stroke="#059669" stroke-width="1.5" stroke-linejoin="round" transform="translate(32 32) scale(0.82) translate(-32 -32)" opacity="0.6"/>
  <path d="M16 46V20h7l9 13 9-13h7v26h-7V32l-9 12.5L23 32v14z" fill="#ffffff"/>
</g></g>
  <text x="96" y="66" font-family="'Segoe UI', Inter, Roboto, 'Helvetica Neue', Arial, sans-serif" font-weight="900" font-size="48" letter-spacing="-1.5" fill="#f1e9d2">MONOPSONY</text>
</svg>
